<?xml version="1.0" standalone="no"?>
<!DOCTYPE svg PUBLIC "-//W3C//DTD SVG 20010904//EN"
 "http://www.w3.org/TR/2001/REC-SVG-20010904/DTD/svg10.dtd">
<svg version="1.0" xmlns="http://www.w3.org/2000/svg"
 width="768.000000pt" height="768.000000pt" viewBox="0 0 768.000000 768.000000"
 preserveAspectRatio="xMidYMid meet">

<g transform="translate(0.000000,768.000000) scale(0.100000,-0.100000)"
fill="#000000" stroke="none">
<path d="M3355 7514 c-440 -44 -869 -201 -1252 -456 -211 -140 -448 -352 -605
-539 -230 -275 -375 -471 -492 -667 -129 -216 -299 -591 -360 -797 -10 -33
-24 -78 -31 -100 -7 -22 -24 -87 -39 -145 -187 -770 -141 -1611 129 -2335 51
-137 77 -196 167 -375 258 -518 616 -948 1072 -1288 263 -197 597 -370 911
-472 55 -18 109 -37 120 -41 43 -17 352 -79 395 -79 5 0 4 15 -1 32 -13 47
-12 48 24 49 29 1 27 2 -13 11 -25 5 -54 13 -65 17 -11 5 -54 18 -95 31 -315
94 -731 321 -1040 569 -114 92 -323 292 -436 419 -408 456 -731 1074 -889
1697 -169 663 -176 1342 -20 2000 84 354 231 710 425 1026 116 189 176 264
340 429 508 508 1115 821 1795 924 220 33 330 38 490 22 535 -56 968 -218
1440 -537 396 -268 796 -699 1061 -1142 74 -123 214 -394 263 -507 80 -187 86
-197 99 -183 14 14 10 36 -13 88 -7 17 -27 64 -43 105 -106 265 -206 452 -388
725 -322 484 -775 903 -1254 1158 -75 40 -266 130 -357 168 -32 14 -48 37 -18
25 9 -3 44 -13 78 -21 179 -46 487 -183 694 -308 251 -153 417 -282 631 -492
309 -302 533 -616 748 -1045 30 -61 59 -123 65 -137 6 -17 14 -23 25 -19 13 5
15 1 9 -21 -6 -26 -5 -27 8 -9 11 15 12 26 3 47 -7 19 -13 24 -18 16 -5 -7 -8
-1 -8 15 0 36 -20 83 -106 253 -69 136 -196 355 -258 445 -48 69 -173 226
-255 320 -233 267 -544 528 -817 686 -358 206 -742 349 -1099 408 -271 45
-738 59 -1020 30z m-2510 -2166 c-4 -18 -19 -76 -35 -128 -59 -202 -86 -335
-130 -628 -23 -159 -33 -487 -21 -711 6 -119 15 -243 20 -276 5 -33 15 -96 21
-140 81 -555 295 -1140 589 -1611 172 -275 329 -473 561 -705 246 -248 504
-442 780 -589 136 -71 392 -190 413 -190 7 0 20 -7 30 -14 100 -76 -289 49
-560 181 -316 153 -613 363 -871 618 -200 196 -298 310 -435 508 -226 327
-365 608 -493 997 -227 689 -245 1506 -48 2214 50 178 168 506 182 506 2 0 1
-15 -3 -32z m5885 -208 c0 -5 -4 -10 -10 -10 -5 0 -10 5 -10 10 0 6 5 10 10
10 6 0 10 -4 10 -10z"/>
<path d="M4866 5390 c-40 -45 -148 -258 -226 -450 -153 -371 -232 -584 -289
-770 -42 -137 -51 -160 -65 -160 -7 0 -71 -60 -142 -133 -106 -109 -146 -144
-224 -190 -179 -106 -300 -127 -300 -52 0 25 35 168 51 206 12 29 52 44 146
53 62 6 99 24 143 68 40 40 80 122 80 164 0 92 -126 133 -254 84 -52 -20 -165
-111 -210 -169 -136 -177 -168 -389 -72 -473 63 -56 162 -73 247 -43 108 38
181 94 357 273 94 96 172 168 172 160 0 -9 -9 -47 -20 -84 -43 -144 -52 -181
-85 -344 -34 -168 -36 -373 -4 -476 28 -90 74 -153 141 -190 49 -27 61 -29
158 -29 116 0 170 13 278 68 97 50 232 150 350 261 100 94 127 126 104 126
-11 0 -84 -49 -147 -99 -92 -73 -228 -162 -315 -206 -129 -64 -199 -85 -285
-85 -64 0 -77 3 -95 23 -34 36 -50 85 -60 185 -18 191 13 349 163 837 69 222
151 462 212 620 73 187 252 683 281 777 14 47 15 60 4 72 -22 27 -55 19 -94
-24z m-356 -900 c0 -5 -4 -10 -10 -10 -5 0 -10 5 -10 10 0 6 5 10 10 10 6 0
10 -4 10 -10z m-588 -400 c-1 -14 -18 -48 -37 -76 -26 -40 -44 -56 -80 -69
-52 -20 -72 -12 -60 25 12 37 135 151 159 148 16 -2 20 -9 18 -28z m456 -7
c-2 -22 1 -27 15 -25 9 2 17 -1 17 -5 0 -27 -69 -228 -80 -231 -14 -5 -8 34
16 103 8 22 14 45 14 50 -1 16 -26 -44 -45 -102 -9 -29 -21 -53 -26 -53 -11 0
-11 19 0 56 57 182 75 234 83 234 5 0 8 -12 6 -27z m29 -183 c-13 -40 -29 -76
-34 -77 -13 -5 19 134 38 168 24 43 22 -8 -4 -91z m-897 -102 c0 -16 -3 -19
-11 -11 -6 6 -8 16 -5 22 11 17 16 13 16 -11z m50 -7 c0 -6 -4 -13 -10 -16 -5
-3 -10 1 -10 9 0 9 5 16 10 16 6 0 10 -4 10 -9z m717 -13 c-3 -8 -6 -5 -6 6
-1 11 2 17 5 13 3 -3 4 -12 1 -19z m11 -129 l-12 -44 -4 33 c-2 18 2 40 9 48
19 23 21 10 7 -37z m37 -31 c-11 -36 -25 -45 -25 -17 0 27 7 39 22 39 5 0 6
-10 3 -22z"/>
<path d="M2378 5332 c-70 -74 -158 -236 -285 -522 -139 -312 -323 -934 -397
-1345 -14 -77 -35 -166 -47 -198 -16 -46 -20 -75 -17 -140 8 -158 43 -224 142
-268 44 -20 68 -23 171 -23 139 0 238 19 360 69 273 113 577 378 750 654 49
79 150 283 194 394 48 120 35 110 176 130 69 10 91 17 93 29 4 22 -49 37 -114
31 -27 -2 -55 0 -63 6 -16 10 -12 36 24 191 59 253 59 252 59 520 1 239 0 260
-22 328 -30 96 -84 153 -167 177 -53 16 -62 16 -123 0 -80 -20 -165 -61 -247
-120 -81 -58 -263 -238 -351 -347 -69 -86 -283 -427 -343 -546 -30 -60 -51
-79 -51 -46 0 13 109 353 186 579 13 39 60 153 104 255 44 102 80 192 80 201
0 8 -5 20 -12 27 -24 24 -55 12 -100 -36z m853 -49 c18 -34 18 -267 0 -403
-43 -327 -170 -778 -225 -800 -11 -5 -77 -25 -146 -45 -239 -69 -635 -244
-855 -378 -87 -53 -92 -43 -50 108 45 163 49 174 152 380 110 219 160 305 322
550 91 138 126 180 252 307 204 205 365 307 485 308 45 0 52 -3 65 -27z m-911
-262 c0 -6 -4 -13 -10 -16 -5 -3 -10 1 -10 9 0 9 5 16 10 16 6 0 10 -4 10 -9z
m-130 -108 c0 -5 -5 -15 -10 -23 -8 -12 -10 -11 -10 8 0 12 5 22 10 22 6 0 10
-3 10 -7z m6 -90 c-10 -10 -19 5 -10 18 6 11 8 11 12 0 2 -7 1 -15 -2 -18z
m-51 -23 c-5 -16 -10 -19 -18 -11 -7 7 -6 15 3 26 17 20 24 13 15 -15z m29
-34 c-6 -16 -24 -23 -24 -8 0 10 22 33 27 28 2 -2 1 -11 -3 -20z m-58 -31 c-3
-8 -10 -15 -15 -15 -7 0 -6 10 1 26 12 26 25 16 14 -11z m104 28 c0 -5 -5 -15
-10 -23 -8 -12 -10 -11 -10 8 0 12 5 22 10 22 6 0 10 -3 10 -7z m-139 -106
c-8 -8 -11 -7 -11 4 0 20 13 34 18 19 3 -7 -1 -17 -7 -23z m48 -8 c-13 -26
-23 -18 -14 10 3 12 11 19 16 16 5 -4 5 -14 -2 -26z m1081 -211 c-27 -128 -77
-288 -96 -308 -12 -12 -14 -12 -14 4 0 19 106 391 116 407 16 27 14 -9 -6
-103z m60 30 c0 -31 -55 -247 -75 -294 -9 -23 -19 -34 -24 -28 -6 5 10 77 37
176 44 157 62 199 62 146z m-1250 0 c-1 -7 -7 -24 -14 -37 -17 -31 -30 -11
-15 23 13 27 29 35 29 14z m1310 9 c0 -2 -9 -45 -21 -97 -33 -153 -61 -240
-76 -240 -9 0 -12 7 -9 18 3 9 19 71 36 137 40 155 50 185 61 185 5 0 9 -1 9
-3z m-1220 -26 c0 -20 -23 -71 -32 -71 -6 0 -7 7 -4 16 3 9 9 27 12 40 6 22
24 34 24 15z m-84 -97 c-3 -8 -10 -14 -15 -14 -10 0 -9 9 6 48 6 16 6 16 10
-1 3 -10 2 -25 -1 -33z m20 -81 c-10 -10 -19 5 -10 18 6 11 8 11 12 0 2 -7 1
-15 -2 -18z m-27 -109 c-12 -28 -13 -28 -17 -6 -2 13 2 30 9 39 18 21 22 2 8
-33z m947 -188 c8 -21 -116 -261 -202 -392 -127 -192 -396 -453 -568 -549
-127 -71 -342 -129 -397 -107 -41 16 -63 74 -67 176 l-4 88 43 44 c34 34 50
64 74 131 29 83 33 90 100 146 39 32 97 76 130 98 142 94 555 284 745 344 47
15 90 28 95 30 23 8 46 4 51 -9z"/>
<path d="M6952 5280 c0 -14 2 -19 5 -12 2 6 2 18 0 25 -3 6 -5 1 -5 -13z"/>
<path d="M6928 5233 c3 -18 7 -21 13 -11 12 18 11 25 -4 31 -10 4 -13 -2 -9
-20z"/>
<path d="M6961 5144 c0 -11 3 -14 6 -6 3 7 2 16 -1 19 -3 4 -6 -2 -5 -13z"/>
<path d="M6981 5094 c0 -11 3 -14 6 -6 3 7 2 16 -1 19 -3 4 -6 -2 -5 -13z"/>
<path d="M6761 4984 c0 -11 3 -14 6 -6 3 7 2 16 -1 19 -3 4 -6 -2 -5 -13z"/>
<path d="M6812 4920 c0 -14 2 -19 5 -12 2 6 2 18 0 25 -3 6 -5 1 -5 -13z"/>
<path d="M5460 4440 c-30 -42 -60 -136 -60 -186 0 -49 21 -68 68 -62 24 3 27
7 28 43 0 29 10 54 37 94 47 68 55 96 32 121 -28 31 -79 26 -105 -10z"/>
<path d="M5883 4262 c-69 -25 -137 -82 -185 -156 -37 -58 -39 -64 -35 -126 3
-36 8 -74 11 -85 5 -15 -17 -52 -95 -155 -115 -153 -217 -262 -267 -286 -31
-14 -36 -15 -50 -1 -14 14 -13 26 12 120 15 58 49 166 77 240 70 192 66 258
-14 243 -56 -10 -118 -112 -178 -291 -29 -86 -33 -114 -34 -201 0 -95 2 -103
28 -137 35 -46 93 -64 148 -48 60 18 176 151 314 359 37 56 74 102 80 102 15
0 55 -90 55 -124 0 -18 -22 -50 -71 -103 -73 -80 -129 -177 -129 -224 0 -64
73 -103 136 -73 51 24 129 115 170 200 31 62 38 88 42 154 3 56 9 83 21 93 32
29 208 124 299 162 50 22 92 42 92 47 0 36 -136 -13 -312 -114 -50 -28 -97
-48 -109 -46 -27 4 -58 76 -58 139 -1 77 90 223 144 231 19 3 20 -2 17 -69 -2
-60 1 -73 13 -73 18 0 64 98 72 150 10 74 -87 110 -194 72z m-692 -549 c-9
-16 -10 -15 -11 8 0 14 3 29 8 33 12 12 14 -22 3 -41z m70 -36 c-16 -16 -20
-5 -8 23 9 22 11 23 14 6 3 -10 0 -23 -6 -29z m479 -110 c0 -13 -14 -51 -30
-84 -49 -97 -99 -139 -108 -90 -8 42 90 197 124 197 8 0 14 -10 14 -23z"/>
<path d="M3740 2585 c-20 -24 -8 -50 26 -53 36 -4 50 18 34 49 -13 23 -43 25
-60 4z"/>
<path d="M4644 2586 c-11 -28 1 -51 27 -54 34 -4 54 20 39 47 -12 24 -58 29
-66 7z"/>
<path d="M2776 2581 c-10 -16 -66 -299 -66 -334 0 -39 15 -57 46 -57 25 0 40
15 24 25 -17 11 -11 76 20 219 17 76 28 142 25 147 -8 12 -42 12 -49 0z"/>
<path d="M2935 2578 c-2 -7 -10 -51 -19 -98 -8 -47 -22 -123 -31 -169 -21
-114 -20 -121 10 -121 30 0 37 15 55 123 10 58 18 82 34 92 27 20 75 19 83 -1
3 -8 0 -57 -7 -107 -8 -51 -13 -94 -12 -97 1 -3 13 -6 26 -8 28 -4 27 -7 49
118 23 127 -2 168 -95 157 -54 -7 -54 -7 -39 70 6 33 5 43 -6 47 -24 10 -43 7
-48 -6z"/>
<path d="M4475 2580 c-3 -5 -19 -70 -35 -145 -43 -195 -39 -245 17 -245 25 0
29 11 14 39 -7 12 0 69 23 184 18 92 30 169 28 172 -9 9 -41 5 -47 -5z"/>
<path d="M2150 2572 c-22 -7 -27 -17 -36 -72 -6 -36 -19 -105 -29 -155 -31
-163 -32 -155 3 -155 29 0 31 3 42 58 17 84 15 82 65 82 87 0 153 47 162 117
6 45 -15 96 -47 113 -25 14 -128 21 -160 12z m99 -53 c51 -18 62 -81 19 -116
-21 -18 -94 -27 -102 -14 -12 19 15 130 33 134 9 3 16 5 17 6 1 0 16 -4 33
-10z"/>
<path d="M3947 2538 c-19 -7 -30 -19 -34 -38 -3 -16 -13 -30 -24 -33 -21 -6
-26 -43 -7 -49 9 -3 7 -25 -5 -86 -17 -87 -12 -124 18 -136 26 -10 105 -7 107
4 4 30 0 35 -32 40 -35 5 -35 5 -34 56 1 28 7 67 13 87 11 32 17 36 49 39 30
2 38 8 40 26 3 19 -1 22 -32 22 l-36 0 6 40 c4 22 5 40 3 39 -2 0 -17 -5 -32
-11z"/>
<path d="M2460 2448 c-75 -51 -106 -183 -55 -233 27 -28 85 -34 130 -13 21 9
28 9 34 -1 5 -7 17 -11 27 -9 14 3 18 11 16 32 -2 16 4 71 14 122 9 52 14 100
10 109 -4 11 -22 15 -74 15 -55 0 -76 -5 -102 -22z m112 -73 c-5 -52 -35 -121
-59 -134 -26 -14 -61 -3 -68 21 -11 32 6 97 32 129 21 25 32 30 62 27 35 -3
36 -4 33 -43z"/>
<path d="M3273 2455 c-48 -21 -86 -85 -91 -155 -4 -53 -2 -61 21 -84 28 -28
90 -36 128 -15 15 7 24 7 34 -1 8 -6 22 -10 31 -8 14 2 18 16 20 73 2 39 9 98
17 132 11 53 11 63 -1 68 -27 10 -127 4 -159 -10z m97 -63 c0 -50 -30 -131
-53 -147 -30 -19 -66 -9 -73 21 -17 69 34 154 92 154 31 0 34 -3 34 -28z"/>
<path d="M3697 2463 c-13 -12 -7 -43 8 -43 18 0 18 -2 -5 -120 -10 -52 -16
-98 -13 -102 2 -5 15 -8 28 -8 25 0 26 3 60 174 21 109 22 106 -28 106 -24 0
-47 -3 -50 -7z"/>
<path d="M4159 2447 c-50 -34 -79 -91 -79 -158 0 -45 4 -60 23 -77 26 -25 104
-31 125 -10 10 10 17 10 32 0 38 -24 50 -16 50 35 0 25 7 81 16 125 9 43 13
85 10 93 -4 11 -23 15 -74 15 -55 0 -76 -5 -103 -23z m111 -57 c0 -52 -39
-140 -67 -151 -40 -15 -63 4 -63 52 0 71 44 129 97 129 30 0 33 -3 33 -30z"/>
<path d="M4607 2463 c-13 -12 -7 -41 9 -47 12 -5 14 -13 8 -38 -16 -72 -31
-173 -27 -180 4 -7 53 -12 53 -5 0 2 11 61 25 132 14 72 25 133 25 138 0 9
-84 10 -93 0z"/>
<path d="M4830 2448 c-74 -51 -107 -189 -57 -236 26 -25 104 -31 125 -10 9 9
18 9 37 0 41 -19 45 -15 45 37 0 27 7 83 16 126 9 42 13 83 10 91 -4 10 -23
14 -74 14 -55 0 -76 -5 -102 -22z m112 -63 c-6 -58 -24 -108 -47 -131 -29 -29
-36 -29 -65 -6 -20 16 -22 24 -16 65 4 28 18 59 33 77 21 26 32 31 62 28 33
-3 36 -5 33 -33z"/>
<path d="M5094 2455 c-3 -8 -3 -18 0 -24 3 -5 -3 -56 -14 -113 -25 -129 -25
-128 5 -128 30 0 36 14 54 120 15 87 31 110 76 110 52 0 57 -16 40 -106 -22
-115 -21 -126 12 -122 26 3 28 8 44 88 23 114 23 146 -1 170 -23 23 -84 27
-126 8 -22 -10 -28 -10 -32 0 -5 17 -51 15 -58 -3z"/>
<path d="M5460 2448 c-47 -33 -71 -68 -81 -124 -11 -56 3 -109 31 -124 25 -14
83 -13 115 2 19 9 28 9 37 0 7 -7 20 -12 30 -12 15 0 18 9 18 59 0 33 7 90 16
127 8 37 13 73 10 80 -4 10 -25 14 -74 14 -55 0 -76 -5 -102 -22z m110 -45 c0
-46 -31 -130 -55 -150 -32 -28 -40 -28 -65 -3 -17 17 -19 28 -14 58 14 79 44
111 102 112 24 0 32 -4 32 -17z"/>
<path d="M3465 290 c-4 -6 3 -10 14 -10 25 0 27 6 6 13 -8 4 -17 2 -20 -3z"/>
<path d="M3530 270 c0 -5 6 -10 14 -10 8 0 18 5 21 10 3 6 -3 10 -14 10 -12 0
-21 -4 -21 -10z"/>
<path d="M3600 252 c0 -5 14 -7 30 -4 17 2 30 6 30 8 0 2 -13 4 -30 4 -16 0
-30 -4 -30 -8z"/>
<path d="M3748 243 c7 -3 16 -2 19 1 4 3 -2 6 -13 5 -11 0 -14 -3 -6 -6z"/>
<path d="M3533 203 c9 -2 25 -2 35 0 9 3 1 5 -18 5 -19 0 -27 -2 -17 -5z"/>
</g>
</svg>
