<svg xmlns="http://www.w3.org/2000/svg" viewBox="0 0 200 200">
  <defs>
    <style>
      .cls-1 {
        fill: #7b2e2c;
      }

      .cls-2 {
        fill: #7a2e2d;
      }

      .cls-3 {
        fill: #7c2e2c;
      }

      .cls-4 {
        fill: #7a302d;
      }

      .cls-5 {
        fill: #792f2e;
      }

      .cls-6 {
        fill: #7a302e;
      }

      .cls-7 {
        fill: #7a2f2d;
      }

      .cls-8 {
        fill: #7b2f2c;
      }

      .cls-9 {
        fill: #7a3231;
      }

      .cls-10 {
        fill: #793231;
      }

      .cls-11 {
        fill: #7c2f2d;
      }

      .cls-12 {
        fill: #7d3837;
      }

      .cls-13 {
        fill: #7b302f;
      }

      .cls-14 {
        fill: #7a3333;
      }

      .cls-15 {
        fill: #7b2e2d;
      }

      .cls-16 {
        fill: #7b3c3d;
      }

      .cls-17 {
        fill: #7f4241;
      }

      .cls-18 {
        fill: #793636;
      }

      .cls-19 {
        fill: #7a3b3b;
      }

      .cls-20 {
        fill: #854b48;
      }

      .cls-21 {
        fill: #7e393b;
      }

      .cls-22 {
        fill: #7c3e41;
      }

      .cls-23 {
        fill: #833d3c;
      }

      .cls-24 {
        fill: #793a37;
      }

      .cls-25 {
        fill: #74302d;
      }

      .cls-26 {
        fill: #844948;
      }

      .cls-27 {
        fill: #814344;
      }

      .cls-28 {
        fill: #854545;
      }

      .cls-29 {
        fill: #935858;
      }

      .cls-30 {
        fill: #84474a;
      }

      .cls-31 {
        fill: #854444;
      }

      .cls-32 {
        fill: #86494b;
      }

      .cls-33 {
        fill: #8f5558;
      }

      .cls-34 {
        fill: #8a5050;
      }

      .cls-35 {
        fill: #833e3a;
      }

      .cls-36 {
        fill: #833c39;
      }

      .cls-37 {
        fill: #8a4745;
      }

      .cls-38 {
        fill: #87494c;
      }

      .cls-39 {
        fill: #722928;
      }

      .cls-40 {
        fill: #702328;
      }

      .cls-41 {
        fill: #9b5a56;
      }

      .cls-42 {
        fill: #9d5a5a;
      }

      .cls-43 {
        fill: #7c3939;
      }

      .cls-44 {
        fill: #864a4a;
      }

      .cls-45 {
        fill: #ceb3b0;
      }

      .cls-46 {
        fill: #b79591;
      }

      .cls-47 {
        fill: #c3a4a3;
      }

      .cls-48 {
        fill: #b69794;
      }

      .cls-49 {
        fill: #90514f;
      }

      .cls-50 {
        fill: #986763;
      }

      .cls-51 {
        fill: #702425;
      }

      .cls-52 {
        fill: #762e2d;
      }

      .cls-53 {
        fill: #905250;
      }

      .cls-54 {
        fill: #b27c79;
      }

      .cls-55 {
        fill: #834746;
      }

      .cls-56 {
        fill: #cab3af;
      }

      .cls-57 {
        fill: #c3a5a2;
      }

      .cls-58 {
        fill: #bc9b98;
      }

      .cls-59 {
        fill: #a8827c;
      }

      .cls-60 {
        fill: #c4a9a4;
      }

      .cls-61 {
        fill: #c1a2a1;
      }

      .cls-62 {
        fill: #8c5454;
      }

      .cls-63 {
        fill: #843f40;
      }

      .cls-64 {
        fill: #9c625d;
      }

      .cls-65 {
        fill: #8e4948;
      }

      .cls-66 {
        fill: #9d6664;
      }

      .cls-67 {
        fill: #a87e7a;
      }

      .cls-68 {
        fill: #8c504c;
      }

      .cls-69 {
        fill: #874745;
      }

      .cls-70 {
        fill: #b08682;
      }

      .cls-71 {
        fill: #9b5a58;
      }

      .cls-72 {
        fill: #8b504c;
      }

      .cls-73 {
        fill: #af847d;
      }

      .cls-74 {
        fill: #c39798;
      }

      .cls-75 {
        fill: #8b4e4e;
      }

      .cls-76 {
        fill: #8d4d4c;
      }

      .cls-77 {
        fill: #c4a8a5;
      }

      .cls-78 {
        fill: #996563;
      }

      .cls-79 {
        fill: #a37977;
      }

      .cls-80 {
        fill: #b58b85;
      }

      .cls-81 {
        fill: #be9e98;
      }

      .cls-82 {
        fill: #894344;
      }

      .cls-83 {
        fill: #772b27;
      }

      .cls-84 {
        fill: #975958;
      }

      .cls-85 {
        fill: #9b615b;
      }

      .cls-86 {
        fill: #995756;
      }

      .cls-87 {
        fill: #cfb9b5;
      }

      .cls-88 {
        fill: #d7c8c3;
      }

      .cls-89 {
        fill: #c9aeaa;
      }

      .cls-90 {
        fill: #a47e7b;
      }

      .cls-91 {
        fill: #e5c8c3;
      }

      .cls-92 {
        fill: #936d68;
      }

      .cls-93 {
        fill: #cab3aa;
      }

      .cls-94 {
        fill: #894848;
      }

      .cls-95 {
        fill: #955c5a;
      }

      .cls-96 {
        fill: #743535;
      }

      .cls-97 {
        fill: #c8a69d;
      }

      .cls-98 {
        fill: #92534f;
      }

      .cls-99 {
        fill: #b68a83;
      }

      .cls-100 {
        fill: #8f5a57;
      }

      .cls-101 {
        fill: #915c59;
      }

      .cls-102 {
        fill: #ddbeb5;
      }

      .cls-103 {
        fill: #874143;
      }

      .cls-104 {
        fill: #874948;
      }

      .cls-105 {
        fill: #772f32;
      }

      .cls-106 {
        fill: #d3b9b2;
      }

      .cls-107 {
        fill: #a46660;
      }

      .cls-108 {
        fill: #b98782;
      }

      .cls-109 {
        fill: #b38682;
      }

      .cls-110 {
        fill: #a57c73;
      }

      .cls-111 {
        fill: #ae7e76;
      }

      .cls-112 {
        fill: #702423;
      }

      .cls-113 {
        fill: #9e6d6f;
      }

      .cls-114 {
        fill: #e7ded8;
      }

      .cls-115 {
        fill: #dbb9b1;
      }

      .cls-116 {
        fill: #c2a6a3;
      }

      .cls-117 {
        fill: #ccb1ae;
      }

      .cls-118 {
        fill: #e1cbc9;
      }

      .cls-119 {
        fill: #c79e9a;
      }

      .cls-120 {
        fill: #ae7c79;
      }

      .cls-121 {
        fill: #c19b96;
      }

      .cls-122 {
        fill: #b58d88;
      }

      .cls-123 {
        fill: #bb9391;
      }

      .cls-124 {
        fill: #8b494b;
      }

      .cls-125 {
        fill: #c69e97;
      }

      .cls-126 {
        fill: #ab7e77;
      }

      .cls-127 {
        fill: #a67e80;
      }

      .cls-128 {
        fill: #7f5b59;
      }
    </style>
  </defs>
  <g id="LogoLetters">
    <path class="cls-1" d="M117.82,79.38c1.06-3.35,2.62-6.5,4-9.74a54.69,54.69,0,0,1,3.85-7.74,11.75,11.75,0,0,1,1.14-1.49,1.16,1.16,0,0,1,1.57-.31,1.14,1.14,0,0,1,.5,1.52q-.81,2.51-1.71,5-2.91,8-5.85,16a4.13,4.13,0,0,1-.36.65,51.22,51.22,0,0,0-2.57,7c-.29.87-.65,1.71-.86,2.6-.06.25-.19.49-.48.52a.45.45,0,0,1-.43-.38c-.11-.57-1-.89-.51-1.65a.62.62,0,0,1,.23,0c.22,0,.47.2.62-.11a.18.18,0,0,0,0-.22c-.25-.21-.43.06-.64.11-.82.13-1.65.31-2.32-.41a2.42,2.42,0,0,1,0-.76c.44-.37.23-1.08.73-1.42a.44.44,0,0,1,.3.15c.16,0,0,.51.36.23,0-.33-.3-.38-.5-.52a12.57,12.57,0,0,1,.86-3.12c.17-.67.49-1.3.62-2h0c.88.27.44.91.43,1.43,0,.15-.17,0,0,.08s.05-.13.11-.19a1.71,1.71,0,0,1,.09-.3,2.54,2.54,0,0,1,.16-.28C116.29,82.26,117.45,80.88,117.82,79.38Z"/>
    <path class="cls-2" d="M112.33,111.11a43,43,0,0,0-.31,7.52,10.54,10.54,0,0,0,.09,1.13c.87,4.47,2.22,4.91,7,3.57s8.69-4.24,12.51-7.27a14.41,14.41,0,0,1,2.81-1.89c.2-.09.38-.18.57,0s0,.37-.1.5c-4.28,4.1-8.53,8.24-14.26,10.28-2.39.85-4.87,1.25-7.34.17-.35-.3-.85-.31-1.24-.54v0c-2.81-1.94-3.5-4.91-3.76-8a35.83,35.83,0,0,1,1.34-11.28c.48-.47.67.23,1,.25a.5.5,0,0,1,.24.19,1,1,0,0,1,.13.51c.11.15.11,0,.16-.07.21-.21.5-.47.69-.11.27.53.65.29,1,.28.63.4.21.94.1,1.35A23.23,23.23,0,0,0,112.33,111.11Z"/>
    <path class="cls-3" d="M89.37,83a.14.14,0,0,1,0,.19,10,10,0,0,0-.51,2.11c-.49-.31-.32-.66-.35-1-.06,0,0,.14,0,.24,0,.58.26,1.16.08,1.74-.07.22,0,.57-.29.64s-.52-.2-.7-.43a1.31,1.31,0,0,1-.16-1.09,7,7,0,0,0,.11-1.12c0-.75-.3-1-1-.78-.28,0-.56,0-.75.25a1.57,1.57,0,0,0-.15.61,2.2,2.2,0,0,1-.33,1.17.61.61,0,0,1-.3.2c-.47-.16-.43-.56-.44-.94a2.33,2.33,0,0,1,.06-.35,9.39,9.39,0,0,0,.46-2.13c-.49,0-.41.4-.57.6a1.3,1.3,0,0,1-.21.31c-.77.46-.78-.21-.73-.59a14.24,14.24,0,0,1,1-4.06c.24-.17.78.17.74-.5a3.19,3.19,0,0,1,.38-1.32c-.25,0-.49.3-.72,0a3,3,0,0,1,.12-1.48,4.57,4.57,0,0,0,.14-1.52,6.37,6.37,0,0,1,.09-1.38,4.08,4.08,0,0,0,.17-1.34,3.71,3.71,0,0,1,.1-.94,2.16,2.16,0,0,0,0-1.44,1.67,1.67,0,0,1,.24-1.42,1.21,1.21,0,0,0,.1-1.75,1.65,1.65,0,0,1-.14-.48c0-.44,0-.9-.4-1.21-.53-.81-1.43-.95-2.25-1.25-.22-1-.08-1.16.91-1.06,2.52.26,4,1.94,4.89,4a7.73,7.73,0,0,1,.62,5c-.13.52.25,1.09.35,1.66A18.06,18.06,0,0,1,90,77.19c-.12.67-.1,1.36-.2,2-.35.74-.08,1.54-.22,2.31C89.37,82,89.58,82.56,89.37,83Z"/>
    <path class="cls-4" d="M77.27,111.8a32.57,32.57,0,0,1-6.11,6.08,34.21,34.21,0,0,1-10.48,6.28,21.52,21.52,0,0,1-11,1.17A5.73,5.73,0,0,1,45,120.76a13.57,13.57,0,0,1,.41-6.84c.89-3,1.29-6.12,1.9-9.19a1.4,1.4,0,0,1,.15-.33.29.29,0,0,1,.34,0c.25.35.25.79.48,1.15s.26.6.08.69c-1.48.8-.79,2.42-1.39,3.54a10,10,0,0,0-.2,1.72,33.05,33.05,0,0,1-1.3,4.6,10.67,10.67,0,0,0,0,3.52A8.27,8.27,0,0,0,47,122.76c-.7-3.24-1.82-6.47,1.68-8.87a2.6,2.6,0,0,0,.48-1.42,3.09,3.09,0,0,1,.57-1.47,13.34,13.34,0,0,1,1.09-1.77.65.65,0,0,1,.32-.16c.2,0,.37,0,.43.26-.71,1.6-1.24,3.27-1.88,4.9a3.21,3.21,0,0,1-.91,1.19c-1.63,1.43-1.69,5.42-.14,7a2.2,2.2,0,0,0,2.1.5,26.37,26.37,0,0,0,12.87-6.21,54.61,54.61,0,0,0,7.54-7.74,42.5,42.5,0,0,0,5.63-9.35A7.06,7.06,0,0,1,78,97.52c.21-.23.39-.49.74-.51.88.61,1,1.22.13,1.83a1.52,1.52,0,0,0-.68,1.19c-.13.79-1.1,1.18-1.2,2.09,0,.26-.3.56-.08.8.66.77.28,1.48,0,2.23s-.56,1.35-1.35.44c-.19-.22-.37-.15-.51,0s-.39.45-.55.69a38.85,38.85,0,0,1-4.81,6c-.35.38-.26.94-.52,1.24a6.46,6.46,0,0,0-1.47,1.89c0,.14-.34.27-.43.19-.78-.62-1.05.16-1.4.53a36.89,36.89,0,0,1-3.94,3.33c-.28.22-.64.37-.19.84s.06.86-.31,1.17a.85.85,0,0,1-1.24,0c-.16-.14-.37-.82-.46.05,0,.37-.35.46-.67.33-1.27-.53-2.14,0-2.86,1-.17.23-.38.41-.62.32-1.56-.6-3,.38-4.42.53A13.3,13.3,0,0,0,48,124a2.22,2.22,0,0,0,2.29-.07,3,3,0,0,1,1.59-.33c.92,0,1,.15.71,1.23a18.15,18.15,0,0,0,5.56-1c1.25-.51,2.71-.46,4-1.07.22-.11.59-.14.66-.32.38-1.11,1.32-1,2.19-1.09.11,0,.24,0,.32-.12-.31-.29-.51-.58,0-.81.32-.13.68,0,1-.11a5.45,5.45,0,0,0,1.8-1.12,60.63,60.63,0,0,0,8.26-7.34c.22-.24.43-.55.84-.41A.32.32,0,0,1,77.27,111.8Z"/>
    <path class="cls-5" d="M89.85,77.17a28.72,28.72,0,0,0-.25-5.24c0-.27,0-.5-.3-.73s-.29-.38.14-.79a.43.43,0,0,0,.15-.4,9.52,9.52,0,0,0-3.19-7.27,5.64,5.64,0,0,0-2.8-.92c-.65-.12-.42.39-.3.73,0,.6-.59.5-.85.78A26,26,0,0,0,77.32,66a44.23,44.23,0,0,0-11,11A128.93,128.93,0,0,0,56.2,94.21c-.41.83-.73,1.7-1.17,2.51-.21.38-.35.93-1,.65-.42-.59-.06-1.13.14-1.66a18,18,0,0,1,2.42-4.62,3.86,3.86,0,0,0,.53-.93,9.78,9.78,0,0,1-.86,1.37c-.53.64-1.07.78-1.61,0a1.39,1.39,0,0,1-.13-.75c.07-.41.23-.75.7-.81.18-.11.38.7.53,0a1.59,1.59,0,0,1,.77-1.29,1.33,1.33,0,0,0,1.61-.8c2.07-3.83,4.42-7.49,6.69-11.2a39.43,39.43,0,0,1,3.49-4.57,3.07,3.07,0,0,0,.59-.8c3.54-4.06,7.27-7.83,12.59-9.59a5.78,5.78,0,0,1,7.71,3.78,27.79,27.79,0,0,1,.89,11.66Q90,77.35,89.85,77.17Z"/>
    <path class="cls-6" d="M77.27,111.8l0-.32c.14-1.37,1.12-2.28,1.83-3.32a9.24,9.24,0,0,0,1.38-2.64c.27-1,1.22-1.55,1.62-2.48.5-1.16,1.58-2.13,1.11-3.59a.48.48,0,0,1,.24-.55c1.52-.86,1.64-2.53,2.22-3.91.4-.94,0-1.4-1-1.09s-1.41-.63-2.2-.59a1,1,0,0,1-.19-.71,1,1,0,0,1,.4-.81c.44-.18.54.24.76.44s.22.11.32,0l.17-.39a1.59,1.59,0,0,1,.2-.24c.51-.48.83-.36.95.31.6-.41.6-.41.7-1.72a24.8,24.8,0,0,0,.83-2.79c.08-.28.18-.57.26-.85.18-.53.22-1.09.36-1.63,0-.16.07,0,0-.11s0,.12-.12.15a.89.89,0,0,1-.55.64c-.31,0-.41-.27-.48-.52a3.44,3.44,0,0,1,.26-1.82c1.35-.29,1.84.33,1.45,2-.15.67-.29,1.2.57,1.53V84c.47.27.07.75.42,1.07.17-.63,0-1.36.58-1.8A69.64,69.64,0,0,1,87.65,91c-.24,1,0,1.39,1,1.39a7.92,7.92,0,0,1,2.87.11c.46.17,1,.32.91.86s-.57.35-.93.4c-1.2.16-2.4.36-3.6.49a1.87,1.87,0,0,0-1.72,1.37,60.74,60.74,0,0,1-7.9,14.91C78,111,77.62,111.39,77.27,111.8Z"/>
    <path class="cls-7" d="M58.29,71.56a38.59,38.59,0,0,1,5.17-9.12,5.29,5.29,0,0,1,.64-.61c.58-.5,1.24-.81,1.93-.32s.35,1.1.11,1.7c-.7,1.73-1.33,3.5-2.2,5.16a15.79,15.79,0,0,0-.75,1.48,1,1,0,0,1-.64.09c-.37,0-.74,0-.87.43A3.09,3.09,0,0,1,61,71.73c-.2.15-.47.33-.67.19-.8-.57-1.21-.13-1.57.54a.93.93,0,0,1-.47.27.38.38,0,0,1-.3-.16C57.88,72.17,58.21,71.9,58.29,71.56Z"/>
    <path class="cls-8" d="M134,101.34a15.19,15.19,0,0,1,2.71-5.53c.25-.11.34-.36.53-.52a1.67,1.67,0,0,1,2-.38c.75.43.6,1.17.46,1.78a49.37,49.37,0,0,1-2.1,6.29c-.39,1.1-.65,2.24-1.09,3.32a1.43,1.43,0,0,0-.32,1.34,2.67,2.67,0,0,1-.45,1.45c-.74.42-1,0-1.06-.64a22.73,22.73,0,0,0-.28-2.85.79.79,0,0,1,.78-1,.41.41,0,0,1,.44.27,1.13,1.13,0,0,1,0,.32c.06,0-.15.18.06.19a4,4,0,0,1,.58-1.1c.28-1.29.28-1.29-1.52-1.25-.25-.28-.26-.8-.79-.83A.76.76,0,0,1,134,101.34Z"/>
    <path class="cls-9" d="M62.61,69.61l.49.25c.08,0,.11.1.09.16s0,.09-.07.09l-.52,1c-.41,1.12-.81,2.23-1.22,3.34-.55,3.28-2.05,6.26-2.93,9.44-.41,1.5-.92,3-1.24,4.53.68-.27.91-.85,1.21-1.38,3-5.22,5.85-10.56,9.84-15.14a6,6,0,0,1,.64-.59c-.41,1.38-1.62,2.18-2.4,3.29-2.79,4-5.19,8.18-7.65,12.35-.3.51-.58,1-.9,1.52a.89.89,0,0,1-1.39.3c-.33-.42-.12-.87,0-1.27A2.29,2.29,0,0,0,56.39,86a3.84,3.84,0,0,1,.22-1.46,10.52,10.52,0,0,0,.61-1.9,3.51,3.51,0,0,1,.36-1c.28-1.08.94-2,1.18-3.13.09-.45.45-.78.54-1.24,0-.11.07-.21.11-.32s.15-.42.23-.63a14.55,14.55,0,0,0,.67-1.92c.1-.21.22-.4.33-.6A5.57,5.57,0,0,0,61,72.3a3.36,3.36,0,0,1,.59-1.42,5.91,5.91,0,0,1,.48-.67A6.91,6.91,0,0,1,62.61,69.61Z"/>
    <path class="cls-10" d="M112.33,111.11c-.24-1.41.39-2.69.57-4,0-.33.13-.57-.29-.63l-.13-.11a.93.93,0,0,1,0-.33c.12-.52,0-1.11.41-1.56a.92.92,0,0,1,.27-.16c.44-.31.09-.67.06-1a10.81,10.81,0,0,1,.61-2.38A4.88,4.88,0,0,0,114,100a3.39,3.39,0,0,1,.15-.89,7.71,7.71,0,0,0,.73-1.81c.17-.5.25-1,.45-1.53A6.9,6.9,0,0,0,116,94a5.66,5.66,0,0,1,.15-.59c0-.09,0-.18,0-.16a1,1,0,0,0-.13.33c-.15.38-.23,1-.77.74S115,93.48,115,93c0-.27.28-.58-.1-.81a.87.87,0,0,1-.23-.2c-.66-.33-.33.45-.6.55-.15.29-.32.55-.7.54-.35-.34-.19-.72-.1-1.09s-.07-.55.23-.72-.09-.84.55-.74a3.77,3.77,0,0,0,2.27.25l.1.11a.48.48,0,0,1,0,.29l-.1.11c-.74,1,1.2.93.78,1.86.83-2.44,1.62-4.89,2.52-7.29.33-.91.39-2,1.29-2.63-1.81,5.25-3.59,10.51-5.21,15.82Q113.88,105,112.33,111.11Z"/>
    <path class="cls-11" d="M135.5,104.67c-.78.15-1,.64-.69,1.31a6,6,0,0,1,.17,2.46c0,.71.36.59.78.51.68,1.51,1.25,1.63,2.6.55a2.24,2.24,0,0,1,.6-.42,33.33,33.33,0,0,0,3.44-3.59c.47-.51.53-.46.69.21h0c-1.17,1.45-2.36,2.88-3.55,4.31-2,2.49-4.19,2.65-6.06.46-.84-1.42-.64-3-.58-4.5,0-.16.08-.32.08-.49,0-1.21.27-2.25,1.82-2.22C136,103.3,136.08,103.46,135.5,104.67Z"/>
    <path class="cls-12" d="M110.79,105.67h-.25c-.22-.12-.24-.45-.52-.51-.86,1-.61,2.39-.86,3.58a23.18,23.18,0,0,0,.09,11.64,7,7,0,0,0,2.39,3.6.86.86,0,0,1,.42.58c-2.49-1.31-3.31-3.71-3.71-6.2-.79-4.84.11-9.55,1.42-14.21.4-.91.35-1.93.74-2.84a.17.17,0,0,1,0-.19,5.69,5.69,0,0,0,.47-1.81l.31-1c.43-.78.24-1.67.48-2.48l.78-.79c.23,0,.31.11.36.29-.12,1.17-.68,2.23-.77,3.4-.06.28-.25.5-.29.79s-.1.56-.12.84-.3.66-.12,1.11a1.2,1.2,0,0,1,.1-.89,1.37,1.37,0,0,1,.19-.47c.17-.17.4-.11.61-.13.53-.26.4-1.07,1-1.24.49.08.44.46.45.81a1.59,1.59,0,0,1-.08.33,2.06,2.06,0,0,0-.27,1.11c-.24.88-.43,1.78-.71,2.64a6,6,0,0,0-.51,1.49,1.06,1.06,0,0,1-.45.57.43.43,0,0,1-.41-.32,3.67,3.67,0,0,1,.19-1.61c0-.09.12-.17,0-.27a.57.57,0,0,1,0,.22c-.09.26-.23.49-.34.73C111.1,104.82,111.57,105.59,110.79,105.67Z"/>
    <path class="cls-13" d="M141.42,91.32a1.59,1.59,0,0,1-1.76-2.07,10.46,10.46,0,0,1,1.57-4.2c.54-.8,1.23-1.28,2.23-.71a1.45,1.45,0,0,1,.54,2.23,8.12,8.12,0,0,1-1.17,1.79,1.86,1.86,0,0,0-.56,1.83C142.55,91.21,142,91.36,141.42,91.32Z"/>
    <path class="cls-14" d="M57.57,82.71c-.35.55-.17,1.32-.72,1.78-.47.22-.34.73-.54,1.08s-.14.41-.39.47c-.22-.19-.59-.15-.76-.44a1.88,1.88,0,0,1,.3-1.22,13.81,13.81,0,0,1-.8,1.75c-.06.17-.13.33-.2.49-.17.33-.26.73-.74.75-.86-.09-1-.72-1-1.41A8.38,8.38,0,0,1,53,84.48c.49-1.46,1-2.92,1.46-4.39.09-.25.12-.5.48-.43.35-.15.43.11.52.35a1.53,1.53,0,0,1,0,.37c.14.37-.66.81.09,1.14a.77.77,0,0,1,.47.09c.19.08.17.35.37.41a1.65,1.65,0,0,1,0-.73,2.7,2.7,0,0,1,.34-1.13,9.7,9.7,0,0,0,.52-1.25,1.23,1.23,0,0,1,.34-.41.89.89,0,0,1,.52-.16.37.37,0,0,1,.26.23A5.71,5.71,0,0,1,57.81,81C57.75,81.57,57,82.05,57.57,82.71Z"/>
    <path class="cls-15" d="M102,106c-2.16,1.66-4.44,3-7.31,2.41a4.81,4.81,0,0,1-3.56-2.45.21.21,0,0,1-.08-.2c0-.08,0-.11,0-.11.59-.24.82.26,1.14.55a5.08,5.08,0,0,0,6.09,1.14c.5-.22.94-.45.57-1.11-.09-.46.41-.33.55-.56a59.12,59.12,0,0,0,5.22-3,4.65,4.65,0,0,0,1.56-1.33l.73-.67c.26-.15.35-.47.62-.61s.69-.3.45.34l-1,1A36.59,36.59,0,0,1,102,106Z"/>
    <path class="cls-16" d="M143.09,105.7c-.65-.66-.85.19-1,.42a19.19,19.19,0,0,1-3,3.09c-.15-.1-.17-.22,0-.35,3.11-2.76,5.13-6.42,7.84-9.5.2.54,1.16.51,1,1.32-.57-.87-1-.38-1.34.18A49.06,49.06,0,0,1,143.09,105.7Z"/>
    <path class="cls-17" d="M139,108.86l0,.35c-.37.26-.73.57-1.12.8-1.41.81-1.88.58-2.16-1.06.08-.5.17-1,.25-1.51a1.51,1.51,0,0,1,.25-1q1.55-4.49,3.1-9a1.71,1.71,0,0,0,.16-.72c-.06-.58.33-1.3-.4-1.71s-1.34,0-1.91.49a3,3,0,0,1-.53.3,1.86,1.86,0,0,1,1.48-1.21c1.27-.23,2,.49,1.8,1.81a29.53,29.53,0,0,1-1.66,5.24,34,34,0,0,0-1.91,6.33c-.12.68-.55,1.52.11,2s1.33-.19,1.89-.63Z"/>
    <path class="cls-18" d="M153.39,100.58c-1,1.16-1.73,1.1-2.29-.22a7.21,7.21,0,0,1,2.35-9,1.35,1.35,0,0,1,1.52-.2.92.92,0,0,1,.32,1.22,5.92,5.92,0,0,0-.14,1.12c0,.3-.38.69.07.88s.4-.47.72-.57a1.1,1.1,0,0,1-.25.82c-.22.23-.37.64-.76.5s-.46-.51-.35-.94a16.62,16.62,0,0,0,.36-2c.1-.78-.38-.87-.94-.64a4,4,0,0,0-1.6,1.54c-1.39,2-2.45,4-1.25,6.52C151.81,101,151.93,101.17,153.39,100.58Z"/>
    <path class="cls-15" d="M92.63,100.38a3.28,3.28,0,0,1,2.65.81c.33-.58-.1-1-.13-1.57.39-.16.61.3,1,.26-.29,1.25-.62,2.49-.88,3.75a3.36,3.36,0,0,0,.18,2.77c.85.57,1.69-.26,2.54,0,.24.79-.36.81-.84.86a8.44,8.44,0,0,0-1.86.27,1.2,1.2,0,0,1-1.37-.34c-.35-.4,0-.78.19-1.13a.94.94,0,0,0,.2-.59,11,11,0,0,1,.54-3.52c-.07,0-.07-.22-.22-.1a.31.31,0,0,1,.19.25c-.36,1.09-.89.8-1.46.19a1.27,1.27,0,0,1-.19-.5c0-.21,0-.43-.11-.64S92.5,100.77,92.63,100.38Z"/>
    <path class="cls-19" d="M151.9,103.66c0-.72,0-1.41.75-1.78.12-.11.22-.1.31,0a1.74,1.74,0,0,0-.6,1.44c.49,3-1,5.4-2.68,7.64a13,13,0,0,1-2.15,2.1,2.36,2.36,0,0,1-3.74-2.73,4.42,4.42,0,0,1,1-2c0,.86-.66,1.51-.82,2.35a2.07,2.07,0,0,0,.64,2.14,1.78,1.78,0,0,0,2.23.13c2.79-2,4.84-4.48,5-8.1A1.4,1.4,0,0,0,151.9,103.66Z"/>
    <path class="cls-20" d="M53,84.48c.12.54-.18,1-.24,1.53a6.94,6.94,0,0,1-.64,3.27c-1.46,4.63-2.77,9.3-3.87,14a1.69,1.69,0,0,1-.55,1.09h-.29a75.26,75.26,0,0,1,2.12-8.87Q51.06,89.94,53,84.48Z"/>
    <path class="cls-21" d="M55.3,80.2a.55.55,0,0,0-.33-.54c.19-.3-.18-.56,0-.93,1-2,1.85-4.09,2.77-6.13.13-.12.24-.11.34,0h.23a.6.6,0,0,1,.12.33,4.78,4.78,0,0,1-.63,2,3.65,3.65,0,0,0-.54,1.38A4.72,4.72,0,0,1,57,77,3.7,3.7,0,0,0,56.58,78a1.94,1.94,0,0,1-.34.76,1.9,1.9,0,0,0-.45,1.06C55.69,80.05,55.62,80.3,55.3,80.2Z"/>
    <path class="cls-22" d="M108,100.34c-.54-.64-.66.42-1.07.27a54.91,54.91,0,0,1,3.8-4.27,1,1,0,0,1,.77-.35c.51.64-.21.82-.45,1.18C109.92,98.1,109.25,99.5,108,100.34Z"/>
    <path class="cls-23" d="M134.76,103.42c-.2.48-.38,1-1,.4-.17-.15-.38.1-.46.62a12.16,12.16,0,0,0,.21,6c-1.32-1.51-.75-3.33-.67-5a12.21,12.21,0,0,1,1.15-4.13c.05.28,0,.61.28.81s.27.76.5,1.09C134.75,103.3,134.76,103.36,134.76,103.42Z"/>
    <path class="cls-24" d="M152.9,89.25a12.4,12.4,0,0,0-4.56,3.19c-.82,1-1.13,2.21-2,3.14C146.77,92.88,150.1,89.65,152.9,89.25Z"/>
    <path class="cls-18" d="M158.21,98.83l.58-.68-1.38.19a4.45,4.45,0,0,1,1.51-.75,7.16,7.16,0,0,0,1.3-.46c.23-.11.38-.38.68-.32a6.91,6.91,0,0,1,1.16-.26c.72-.11.5.26.18.58l-.47.24a7.18,7.18,0,0,0-1.29.5A7,7,0,0,1,158.21,98.83Z"/>
    <path class="cls-25" d="M96.11,99.88c-.54.75-.59-.33-1-.26,1.65-1.22,3.73-1,5.55-1.67.18-.07.49.23.75.36a4.85,4.85,0,0,1-2.89.58c-.44.21-1,0-1.39.21S96.3,99.39,96.11,99.88Z"/>
    <path class="cls-26" d="M117.1,84.24a2,2,0,0,1,0,.25c-.22.21-.26.7-.75.5,0-.59.57-1.19,0-1.77a16.47,16.47,0,0,1,1.5-3.84,4.55,4.55,0,0,1-.48,1.88c-.19.65-1,1.34.15,2a.6.6,0,0,1-.39,1,.75.75,0,0,1-.08-.14S117,84.19,117.1,84.24Z"/>
    <path class="cls-22" d="M102,106c1.53-1.69,3.37-3,5-4.6A16.18,16.18,0,0,1,102,106Z"/>
    <path class="cls-10" d="M114.83,88.53c-.43.31-.12,1-.72,1.26-.16-.06-.17-.15,0-.26a27.35,27.35,0,0,1,1.52-4.29c.08-.12.17-.11.25,0-.12,1-.85,1.93-.75,3C115.13,88.5,115.06,88.59,114.83,88.53Z"/>
    <path class="cls-6" d="M89.85,77.17h.24A22.75,22.75,0,0,1,89.37,83l0-1.58c.34-.73-.08-1.54.25-2.27A5.33,5.33,0,0,1,89.85,77.17Z"/>
    <path class="cls-16" d="M139.55,110a21.34,21.34,0,0,1,3.55-4.31A17.91,17.91,0,0,1,139.55,110Z"/>
    <path class="cls-27" d="M91.15,105.68l0,.26c-1.08-1.94-.67-3.89,0-5.84l.15.14a2.29,2.29,0,0,1,0,1.61c0,1,0,1.89,0,2.84A1.31,1.31,0,0,1,91.15,105.68Z"/>
    <path class="cls-28" d="M112.83,95.39l-.24-.3a5.64,5.64,0,0,1,.69-3.09c.1.35-.1.77.27,1.06l.11.11a.72.72,0,0,1,0,.48,3.26,3.26,0,0,0-.36,1.21,1,1,0,0,1-.18.47A.34.34,0,0,1,112.83,95.39Z"/>
    <path class="cls-29" d="M97.92,106.44c-.83,0-1.68.71-2.51,0,1.42.2,2.68-.5,4-.75l-.51.53C98.69,106.66,98.35,106.72,97.92,106.44Z"/>
    <path class="cls-27" d="M92.6,96.79c0,1-1,1.76-1,2.82-.19.15,0,.58-.44.55l-.08-.06A7.69,7.69,0,0,1,92.6,96.79Z"/>
    <path class="cls-30" d="M111.06,97.17c.07-.42.58-.68.45-1.18l.3-.11a2.57,2.57,0,0,1-.48,2.48C111,98,112,97.37,111.06,97.17Z"/>
    <path class="cls-31" d="M61.38,74.46a8.85,8.85,0,0,1,1.22-3.34A9.74,9.74,0,0,1,61.38,74.46Z"/>
    <path class="cls-18" d="M153,101.91l-.31,0c.87-.6,1.61-1.46,2.78-1.5Z"/>
    <path class="cls-30" d="M110.51,101.32a6.13,6.13,0,0,1-.74,2.84A6.73,6.73,0,0,1,110.51,101.32Z"/>
    <path class="cls-32" d="M162.24,97.13c0-.2.27-.57-.23-.41a2.48,2.48,0,0,1-1.11.09c.41-.14.82-.32,1.24-.43s.67,0,.7.32S162.58,97.17,162.24,97.13Z"/>
    <path class="cls-26" d="M115.83,85.25h-.25a5,5,0,0,1,.75-2A4.14,4.14,0,0,1,115.83,85.25Z"/>
    <path class="cls-16" d="M146.39,97.35c.54.59,1,1.19.45,2C146.93,98.64,146.4,98.05,146.39,97.35Z"/>
    <path class="cls-22" d="M106.21,101.28a1.83,1.83,0,0,1-1.56,1.33Z"/>
    <path class="cls-31" d="M63.12,70.11a2.11,2.11,0,0,1,0-.25c.18-.55.28-1.15.84-1.49A3.79,3.79,0,0,1,63.12,70.11Z"/>
    <path class="cls-28" d="M114.06,89.53a2.38,2.38,0,0,1,0,.26c0,.25,0,.5,0,.75-.31.15-.17.64-.55.74A4.32,4.32,0,0,1,114.06,89.53Z"/>
    <path class="cls-18" d="M157.43,98.32a1.46,1.46,0,0,1-1.51.79A4.37,4.37,0,0,1,157.43,98.32Z"/>
    <path class="cls-30" d="M111,99.32a2,2,0,0,1-.47,1.81A4.38,4.38,0,0,1,111,99.32Z"/>
    <path class="cls-18" d="M155.93,99.1a1.35,1.35,0,0,1-1.31.74A2.69,2.69,0,0,1,155.93,99.1Z"/>
    <path class="cls-32" d="M160.22,97.13c-.29.56-.8.49-1.3.46A1.83,1.83,0,0,1,160.22,97.13Z"/>
    <path class="cls-18" d="M154.65,99.82a1.27,1.27,0,0,1-1.28.78A2.7,2.7,0,0,1,154.65,99.82Z"/>
    <path class="cls-18" d="M155.43,100.38a1.46,1.46,0,0,1,1.29-.74A2.63,2.63,0,0,1,155.43,100.38Z"/>
    <path class="cls-32" d="M160.48,97.87a1.32,1.32,0,0,1,1.29-.5A2,2,0,0,1,160.48,97.87Z"/>
    <path class="cls-33" d="M112.05,124.59a1.24,1.24,0,0,1,1.24.54A1.73,1.73,0,0,1,112.05,124.59Z"/>
    <path class="cls-18" d="M156.7,99.66c.18-.53.6-.57,1.06-.52Z"/>
    <path class="cls-34" d="M58.08,72.63l-.34,0a1.69,1.69,0,0,1,.55-1Z"/>
    <path class="cls-1" d="M97.17,99.1c.41-.41.92-.17,1.39-.21A3.15,3.15,0,0,1,97.17,99.1Z"/>
    <path class="cls-10" d="M116.33,90.79c.22-.35.47-.67.85-.21a.7.7,0,0,1-.07,1c-.37.33-.68.25-.78-.29h0a.28.28,0,0,0,0-.49Z"/>
    <path class="cls-35" d="M119.36,84.27c0,.28-.08.57-.41.55s-.32-.26-.31-.47.14-.5.44-.51S119.31,84.12,119.36,84.27Z"/>
    <path class="cls-36" d="M114.83,88.53l.25-.26c.19,0,.47-.2.55-.13.32.28-.13.58,0,.89-.39.3-.56,0-.75-.26A1,1,0,0,1,114.83,88.53Z"/>
    <path class="cls-37" d="M116.34,85l.75-.5c-.06.33.17.79-.32.94C116.46,85.53,116.37,85.26,116.34,85Z"/>
    <path class="cls-10" d="M114.83,88.77l.75.26c0,.17.24.44-.1.47S114.85,89.19,114.83,88.77Z"/>
    <g>
      <polygon class="cls-1" points="156.72 99.64 156.71 99.65 156.71 99.66 156.72 99.64"/>
      <path class="cls-1" d="M154.62,99.83h0Z"/>
      <path class="cls-1" d="M153.37,100.6h0Z"/>
      <path class="cls-1" d="M157.41,98.34h0v0Z"/>
      <path class="cls-1" d="M158.91,98.19c-.22-.51-.68-.09-1,0a1.47,1.47,0,0,0-.45.14,4,4,0,0,1-1.5.77h0a5.36,5.36,0,0,1-1.3.73,3.7,3.7,0,0,1-1.26.76c-.56.5-1.33,1-1.8.21a5.46,5.46,0,0,1-1.11-4.13,10,10,0,0,1,2.77-4.81,1.36,1.36,0,0,1,1.57-.48c.61.28.26.88.26,1.35a3.07,3.07,0,0,1-.1.74c-.1.39-.36.88.19,1.09s.54-.47.79-.74a6.67,6.67,0,0,0,.94-2.13,1.87,1.87,0,0,0-1.34-2.44,3.36,3.36,0,0,0-2.64,0c-.57.32-1.24.36-1.82.7a10.72,10.72,0,0,0-4.71,5.63,1.6,1.6,0,0,0,0,1.77c.26.65.81,1.23.45,2h0c-.18.25-.13.5.15.55a1.17,1.17,0,0,1,.85.77,5.87,5.87,0,0,0,.16.6c1,2.27.9,2.52-.82,4.25a10,10,0,0,0-2.36,2.87,11.77,11.77,0,0,0-1,2.3,2.14,2.14,0,0,0,.85,2.44,1.92,1.92,0,0,0,2.36,0c2.81-2,4.81-4.63,5.15-8.24a3.18,3.18,0,0,0,0-1.15c0-.66-.12-1.34.54-1.8a12.41,12.41,0,0,1,2.73-1.59h0a9,9,0,0,1,1.28-.73c.26-.34.68-.38,1-.51l.45-.31C158.45,98.6,159.07,98.56,158.91,98.19Zm-10.53,8.94a11.5,11.5,0,0,1-2.44,4.47.56.56,0,0,1-.78.17.67.67,0,0,1-.22-.78,9.45,9.45,0,0,1,2.6-4.34.55.55,0,0,1,.67-.18C148.48,106.62,148.38,106.9,148.38,107.13Z"/>
    </g>
    <path class="cls-18" d="M151.9,103.66a.85.85,0,0,1,0,1.26Z"/>
    <path class="cls-38" d="M111.79,105.41l.24.26c.35.12.31.51.51.75l.07,0c-.08.23-.09.54-.39.57s-.39-.25-.41-.49c-.07-.7-.28-.45-.52-.09a.33.33,0,0,1-.49,0v-.77c.56-.27-.24-1,.44-1.26l.15.09c.19.22.09.51.21.75A1,1,0,0,1,111.79,105.41Z"/>
    <path class="cls-39" d="M118,124.27h-4v-.12h4Z"/>
    <path class="cls-40" d="M111.65,112.73a4.19,4.19,0,0,1,0,2A4.18,4.18,0,0,1,111.65,112.73Z"/>
    <path class="cls-41" d="M110,105.17c.48-.22.48-.22.52.51C110,105.89,110.1,105.44,110,105.17Z"/>
    <path class="cls-42" d="M110.8,106.44h.49c-.05.24.13.65-.3.62C110.73,107,110.81,106.67,110.8,106.44Z"/>
    <path class="cls-43" d="M82.31,63.11c.16-.49.78-.16,1-.56a2.18,2.18,0,0,1,2.27,1.26c.58.25.2.89.5,1.26v.5a1.59,1.59,0,0,1,0,1.77,2.5,2.5,0,0,0-.24,1.52,1.55,1.55,0,0,1,0,1.25v1c-.31.38,0,.88-.25,1.26V73.9c-.33.46.06,1-.26,1.51a4.31,4.31,0,0,1-.25,1.51,1.57,1.57,0,0,1-.25,1.77c-.34,1.38-.71,2.75-1,4.14-.15.77.28.26.5.15.42.53,0,1,0,1.58-.5,1.19-.55,2.49-1,3.7a.48.48,0,0,1-.56.06c-.49-.64.09-1.17.06-1.79a30.9,30.9,0,0,1-1.81,6,3.54,3.54,0,0,1-2.91,2.58,4.34,4.34,0,0,0-1.89.7c-.68.4-1.5.28-2.21.6-1.74.48-3.39,1.2-5.08,1.82-.75.28-1.52.79-2.38.31,0-.65.58-.77,1-1a80.84,80.84,0,0,1,10-3.44,3.55,3.55,0,0,0,2.71-2.48A83.09,83.09,0,0,0,84.64,74c.33-2.54.25-5.11.52-7.66a6.93,6.93,0,0,0-.2-1.49,1.47,1.47,0,0,0-1.58-1.45A1.51,1.51,0,0,1,82.31,63.11Z"/>
    <path class="cls-44" d="M83.28,92.58l-.49-.78a.67.67,0,0,1-.21-.5,1.58,1.58,0,0,1,0-.38c.33-.81.39-1.71.79-2.5.46-1.22.27-2.61,1-3.76a.43.43,0,0,1,.38,0c.09.34-.09.75.24,1,.53.59.17,1.2,0,1.73A22,22,0,0,0,84,90.66a8.27,8.27,0,0,0-.52,1.62A.7.7,0,0,1,83.28,92.58Z"/>
    <path class="cls-45" d="M83.81,90.81c0-1.56.82-2.88,1.11-4.35,0-.24.07-.48.1-.72l.09-.23a.37.37,0,0,1,.56,0,9.72,9.72,0,0,1-1.57,6.29l-.07,0C83.38,91.59,83.66,91.18,83.81,90.81Z"/>
    <path class="cls-5" d="M84.81,78.69a5.06,5.06,0,0,1,.25-1.77c.41-.12.55-.64,1.15-.67a7,7,0,0,0-.69,3C84.94,79.4,85.13,78.76,84.81,78.69Z"/>
    <path class="cls-46" d="M84.78,84.7h-.24c-.14-.12-.35-.06-.48-.2.09-.5.17-1,.26-1.51h0c.18-.29.15-.88.63-.75s.28.66.15,1-.06.9-.28,1.3A.52.52,0,0,0,84.78,84.7Z"/>
    <path class="cls-44" d="M84.82,84.49l.21-2c-.5-.12-.43.42-.71.54a1,1,0,0,1,.19-.83c.16-.19.34-.44.62-.32a.53.53,0,0,1,.28.64A5.74,5.74,0,0,1,84.82,84.49Z"/>
    <path class="cls-5" d="M86.07,67.34V65.57C86.78,66.22,86.78,66.69,86.07,67.34Z"/>
    <path class="cls-44" d="M86.32,83.23c.22.59,0,1.17,0,1.76A.24.24,0,0,1,86,85c-.28-.39-.25-.88-.45-1.3C85.6,83.19,86,83.23,86.32,83.23Z"/>
    <path class="cls-47" d="M85.61,85.51h-.5c.08-.42.16-.84.25-1.26,1.1-.1.38.74.58,1.12A.23.23,0,0,1,85.61,85.51Z"/>
    <path class="cls-48" d="M85.81,85.46c-.11-.42.31-1-.45-1.21a.52.52,0,0,1,.19-.56c.84.17.42.85.53,1.3S86.26,85.51,85.81,85.46Z"/>
    <path class="cls-5" d="M89.6,79.19c-.11.76.25,1.56-.25,2.27C89.46,80.71,89.1,79.9,89.6,79.19Z"/>
    <path class="cls-5" d="M86.07,65.07c-.4-.33-.19-.9-.5-1.26C86.37,64,86,64.63,86.07,65.07Z"/>
    <path class="cls-5" d="M85.31,75.41c.08-.51-.19-1.07.26-1.51C85.48,74.4,85.77,75,85.31,75.41Z"/>
    <path class="cls-5" d="M85.57,72.38c.05-.43-.16-.9.25-1.26C85.76,71.54,86,72,85.57,72.38Z"/>
    <path class="cls-5" d="M85.82,70.11c0-.42,0-.83,0-1.25A.85.85,0,0,1,85.82,70.11Z"/>
    <path class="cls-1" d="M105.19,91.72a3.84,3.84,0,0,0-3.76-1.54c-4.06.66-6.79,3.2-8.83,6.61a12.88,12.88,0,0,0-1.17,2.66c-.05.49.09.79.65.69a.42.42,0,0,1,.48.25.86.86,0,0,0,.27.2,5.09,5.09,0,0,1,1.9.6c.67.46.89.11.92-.54,0-.25,0-.5,0-.75,1.63-1.61,3.83-1.16,5.79-1.59,2.43-.7,3.32-2.69,4.07-4.83A1.77,1.77,0,0,0,105.19,91.72Zm-6.4,6c-.88,0-1-.4-.69-.9a11.76,11.76,0,0,1,3.61-3.62c.45-.3.79-.18.82.45C102.59,95.18,100.13,97.74,98.79,97.71Z"/>
    <path class="cls-49" d="M93.35,101.61l0,.53-.13.13a1.91,1.91,0,0,1-1.88-.45l-.09-.15a.42.42,0,0,1,0-.33c.68-.24-.16-.39,0-.6a1,1,0,0,1,1.33-.61,2,2,0,0,0,0,.25c.12.33.63.15.72.54C93.15,101.15,93,101.38,93.35,101.61Z"/>
    <path class="cls-15" d="M91.39,101.35l0,.29a.36.36,0,0,1-.23.13.29.29,0,0,1-.23-.12,4,4,0,0,0,.28-1.49l.44-.55c0,.52.26.3.54.16s.67-.22.47.36c-.51.11-1,.18-1.21.8A.3.3,0,0,1,91.39,101.35Z"/>
    <path class="cls-3" d="M74,96.1l2.26-.51c.57-.31,1.25-.33,1.77-.75a3,3,0,0,0,2.76-2.32c.62-1.9,1.44-3.72,1.88-5.67a1.86,1.86,0,0,1,.3-.46c.24.72-.33,1.28-.13,1.91a.81.81,0,0,1,0,.16,8,8,0,0,1-.32,1.26,2,2,0,0,1-.1.32c-.21.62-.37,1.26-.6,1.87-.29.8,0,1.22.74,1.41.34-.16.84-.46,1-.14.51.8.87.73,1.37,0,.13-.19.5-.15.51,0,0,.58,1.09.48.77,1.25-.58,1.42-1.13,2.85-1.69,4.27-.14.36-.39.17-.62.17-.5,0-.73.31-.39.73s.18.94-.06,1.38c-.8,1.43-1.93,2.81-2.52,4.2a53.72,53.72,0,0,1-2.71,4.64c-.29.55-.66,1-1,1.58a67,67,0,0,1-9.07,8.18c-.86.68-1.71,1.35-2.94,1,.08.57.56.27.7.54-1.3.73-1.3.73-2.35.43,0,.34.34.73-.25,1A23.32,23.32,0,0,1,58.77,124c-1.3.3-2.57.75-3.92,1-1,.15-1.9,0-2.81.12-.24-.7.47-.66.62-1-1.36-.49-1.9-.36-2.6.6a.54.54,0,0,1-.68.12,15.24,15.24,0,0,1-2.24-1.07c2.42-.09,4.84-.08,7.09-1,.65-.28,1,.31,1.48.29s-.13-1.08.65-1c1,0,1.8-1.47,2.91-.25.15.16.38-.27.19-.49s-.22-.53.17-.61.61-.12.63.36c0,.73.45.72.9.39s.92-.67.18-1.13c-.56-.36-.1-.58.08-.72a42.22,42.22,0,0,0,5.61-5c.38.38-.21.57,0,.83s.31.1.44,0,.58-.48.37-.84c-.46-.78-.2-.83.5-.59.3.11.61-.16.59-.31-.23-1.67,1.29-2.3,2.1-3.2,1.41-1.56,2.47-3.34,3.74-5,.32-.41.69-1.37,1,0a.42.42,0,0,0,.42.39c.29,0,.26-.28.29-.47.13-.8,1.23-1.62-.06-2.4a.4.4,0,0,1,0-.66c.63-.3.47-.86.58-1.36,0-.22,0-.67.61-.47.48.16.34-.41.26-.69-.14-.52-.37-.9.54-1s.91-.88.29-1.68a1.4,1.4,0,0,0-1.49-.73,17.46,17.46,0,0,0-2,.44C74.66,96.88,74,97,74,96.1Z"/>
    <path class="cls-3" d="M47.73,104.4c.93-4.69,2.28-9.28,3.66-13.85.46-1.52.93-3,1.4-4.54.24.5.42,1,1,1.26.25.17.53.85.73,0,0-.11.07-.21.11-.32.19-.41.24-.9.68-1.16s.51-.14.51.27c0,0,0,.11,0,.16s0,.37.12.41.28-.2.38-.34a.75.75,0,0,1,.22-.25c1,.93,0,1.85,0,2.78A2.15,2.15,0,0,0,56,90.12c0,.32.18.88-.4.83s-.27-.58-.34-.91a.73.73,0,0,1-.23-.63c0-.07.1-.17,0-.23a1.7,1.7,0,0,1,0,.22c0,.52-.59.83-.49,1.38a5.16,5.16,0,0,1,0,.68.9.9,0,0,1-.08.23l-.09.23c.14,0,0-.12.12-.16a.45.45,0,0,1,.39-.21c.87.35,1.66-.23,1.95-1.43.07-.27-.07-.61.29-.76a.31.31,0,0,1,.41.17.91.91,0,0,1-.22.92,28.1,28.1,0,0,0-2.94,5.62,1.89,1.89,0,0,0-.24,1.32c0,.06,0,.11,0,.16a4.92,4.92,0,0,0-.37,1.24c-.26.87-.28,1.93-1.42,1.93,1.09,1.89-.29,3.29-1,4.89a.15.15,0,0,0,.13.09c.72,0,1.51-.1,1.77.8s-.32,1.4-1,1.84c-.42.27-.78.64-1.23.87h0A4.25,4.25,0,0,0,50,111c0,.56-.65.9-.5,1.51A8,8,0,0,0,49,114c-.12.16-.21.4-.37.48-1.58.82-2,2.15-1.92,3.84a7.61,7.61,0,0,0,1.06,4.38c0,.06,0,.15,0,.34-.64-.17-1.72.52-1.76-.52s-1-1.71-.82-2.72a12,12,0,0,1,0-3.78l1.26-4.54c.43-.54-.1-1.22.25-1.77,0-1.14.64-2.17.52-3.32a.28.28,0,0,1,.07-.22c.27-.22.7.6.89-.12.11-.45-.55-.49-.54-.9A6.34,6.34,0,0,1,47.73,104.4Z"/>
    <path class="cls-5" d="M51,109.21a4.2,4.2,0,0,1,1.44-1.37,1,1,0,0,0,.49-1.4,1,1,0,0,0-1.41-.36c-.21.11-.41.42-.64.15a.66.66,0,0,1,.08-.92,6.09,6.09,0,0,0,1.34-2.86c.17-.49.74-1.27-.53-1.15a.39.39,0,0,1-.42-.38c0-.23.15-.48.34-.45,1.46.2,1.42-1,1.83-1.86.31-.17-.13-.87.56-.76.36.48.12,1,0,1.43-.45,1.53-.89,3.06-1.26,4.61-.07.28-.24.62,0,.84s.64,0,.92-.16c1.65-.92,3.28-1.86,5-2.74,2.18-1.17,4.43-2.19,6.7-3.18.38-.17.76-.38,1.18-.08,2-.2,3.74-1.31,5.65-1.87.6-.17,1.17-.4,1.76-.6.32.62.85.54,1.39.41a7.25,7.25,0,0,1,2.16-.41c0,.62-.6.19-.78.49a101.3,101.3,0,0,0-20,8.85,49,49,0,0,0-5.14,3.79Z"/>
    <path class="cls-50" d="M76.74,96.59l.78-.49a1,1,0,0,1,1.22,1l-.5.53C78.57,96,77.36,96.74,76.74,96.59Z"/>
    <path class="cls-51" d="M45.21,116v3.78A6,6,0,0,1,45.21,116Z"/>
    <path class="cls-5" d="M50,111a1.66,1.66,0,0,1,1-1.76A5.08,5.08,0,0,1,50,111Z"/>
    <path class="cls-52" d="M46.72,109.71c-.14.58.46,1.27-.25,1.77C46.57,110.89,46.24,110.24,46.72,109.71Z"/>
    <path class="cls-5" d="M49,114a1.69,1.69,0,0,1,.51-1.52A2.39,2.39,0,0,1,49,114Z"/>
    <path class="cls-3" d="M76.44,104c-.15.07-.25.15-.34.15s-.3-.11-.22-.29a.38.38,0,0,1,.3-.1C76.26,103.73,76.33,103.85,76.44,104Z"/>
    <path class="cls-53" d="M55.28,89.27l0,.77a.8.8,0,0,0-.51.76.32.32,0,0,1-.47,0c-.19-.63.46-1,.49-1.55A.31.31,0,0,1,55.28,89.27Z"/>
    <path class="cls-54" d="M54.32,90.82l.47,0,.06.75-.27.29c-.17,0-.2-.17-.28-.28Z"/>
    <path class="cls-55" d="M85.81,85.46l.27-.47h.23a.54.54,0,0,0,.28.51.84.84,0,0,1,.19.76c-.24,1.36-.82,2.63-1,4-.34.57-.07,1.49-1,1.74,0-1.08-.51,0-.7-.19a26.28,26.28,0,0,0,1.51-6.31A.29.29,0,0,0,85.81,85.46Z"/>
    <path class="cls-56" d="M85.53,90.22a22.77,22.77,0,0,1,1-4c.84.13.34.69.34,1.08.13,1.1-.58,2-.77,3-.3.15.09.82-.45.7C85.29,90.91,85.46,90.49,85.53,90.22Z"/>
    <path class="cls-57" d="M85.53,90.22l.1.6.44-.53a4,4,0,0,1-.45,1.88.52.52,0,0,1-.67.36c-.36-.08-.35-.27-.15-.52C85.28,91.51,85.1,90.74,85.53,90.22Z"/>
    <path class="cls-43" d="M82.54,93.32c-1.23.24-1.4.08-1.09-1.12a5.36,5.36,0,0,1,.87-2.38c.45.6,0,1.17,0,1.75,0,.37-.39.81.26,1Z"/>
    <path class="cls-58" d="M82.54,92.56c-.25.1-.32.58-.7.37s-.14-.44-.08-.68c.19-.81.37-1.62.56-2.43h0a.2.2,0,0,1,.29,0,.73.73,0,0,1,.16.3,1.75,1.75,0,0,1-.2,1.12s0,.07.06.08a.17.17,0,0,0,.12,0l.05.52Z"/>
    <path class="cls-59" d="M86.85,84.76a1.27,1.27,0,0,1,.55-1,4.14,4.14,0,0,1-.3,2.8C86.58,86,87.07,85.33,86.85,84.76Z"/>
    <path class="cls-60" d="M86.85,84.76c.49.54.1,1.19.25,1.77a1.05,1.05,0,0,1-.26.76c-.06-.38.11-.82-.34-1.08l.09-.71C86.67,85.25,86.76,85,86.85,84.76Z"/>
    <path class="cls-61" d="M83.81,90.81c0,.33-.13.72.22,1v.49a.43.43,0,0,1-.71,0A1.65,1.65,0,0,1,83.81,90.81Z"/>
    <path class="cls-62" d="M83.32,92.25l.71,0c0,.59-.31.66-.75.3C83.3,92.47,83.31,92.36,83.32,92.25Z"/>
    <path class="cls-63" d="M61.35,72.38c-.18.5-.14,1.07-.5,1.52-.37,0-.47.18-.26.5-.35.63-.15,1.47-.75,2a5.24,5.24,0,0,1-.68.31.47.47,0,0,1-.31,0,3.31,3.31,0,0,1-.59-.75.51.51,0,0,1,0-.3c.14-.2.4-.27.51-.48s-.21-.09-.33-.13c-.8-.32-.25-.78-.13-1.2a5.33,5.33,0,0,1,.31-.58,1,1,0,0,0,0-.9c.13-.26.26-.52.4-.77.27-.49.5-1.13,1-.12.15.32.54.33.88.14C61.12,71.8,61,72.22,61.35,72.38Z"/>
    <path class="cls-64" d="M61.35,72.38c-.94.27-.33-.51-.5-.76a3,3,0,0,0,.52-1.48.19.19,0,0,1,.28-.07,1.24,1.24,0,0,1,.22.82C61.84,71.43,61.2,71.77,61.35,72.38Z"/>
    <path class="cls-31" d="M61.62,70.13h-.25c.22-.64.75-.53,1.24-.53,0,.28.06.59-.3.73C62.1,70.23,61.83,70.28,61.62,70.13Z"/>
    <path class="cls-65" d="M60.27,69.8a.33.33,0,1,1,0-.65.3.3,0,0,1,.32.31A.3.3,0,0,1,60.27,69.8Z"/>
    <path class="cls-34" d="M58.57,72.37c.71.19.64.56.24,1a1,1,0,0,1-.44-.38l-.06-.14v-.24Z"/>
    <path class="cls-66" d="M62.58,67.71c-.19.14-.3.28-.43.31s-.29-.13-.29-.3.11-.34.29-.31S62.39,67.57,62.58,67.71Z"/>
    <path class="cls-23" d="M135.5,104.67c-.15-.48.58-1.47-.74-1.25l0,0c-.1-.18-.13-.34.06-.48s.18,0,.24,0c.52-.43,1.13-.11,1.69-.22,0,.61.24,1.23-.18,1.78a.49.49,0,0,1-.21-.26c-.06-.27-.09-.55.06-.69-.23.27-.12.77-.35,1.15-.16.2-.06.64-.53.55Z"/>
    <path class="cls-67" d="M134.78,102.89l-.06.48a1.18,1.18,0,0,1-.47-1.22c.13-.21.36-.3.53-.17C135.15,102.26,134.63,102.58,134.78,102.89Z"/>
    <path class="cls-68" d="M135.5,105.17c.31-.19.23-.51.28-.79.24-.08.41-.38.72-.24l0,.28a5.11,5.11,0,0,0-.78,1.5c-.63-.06-.33-.44-.25-.75Z"/>
    <path class="cls-11" d="M136.26,106.43c0,.35.11.74-.25,1C135.52,107,135.85,106.69,136.26,106.43Z"/>
    <path class="cls-23" d="M135.5,105.17c0,.28-.05.57.25.75-.1.15-.27.25-.38.09A.57.57,0,0,1,135.5,105.17Z"/>
    <path class="cls-69" d="M57.57,81l.75-2.53c-.08-.21,0-.28.21-.33a.86.86,0,0,1,.55.33,22.54,22.54,0,0,1-1.26,3.29A.63.63,0,0,1,57.57,81Z"/>
    <path class="cls-34" d="M59.08,78.43a.51.51,0,0,1-.5-.25,1.55,1.55,0,0,1-.4-.89,5.15,5.15,0,0,1,0-1.11.43.43,0,0,1,.13-.28c.56,0,.42.63.78.8s-.11.72.46.45C59.78,77.72,59.1,78,59.08,78.43Z"/>
    <path class="cls-70" d="M56.56,86a.25.25,0,0,0,0,.19.17.17,0,0,1-.27.1c-.22-.22,0-.59-.22-.8.21-.38-.1-1.17.8-1C56.75,85,56.66,85.5,56.56,86Z"/>
    <path class="cls-71" d="M57.57,81l.25.76a1.57,1.57,0,0,0-.25,1C56.61,82.13,57.42,81.55,57.57,81Z"/>
    <path class="cls-72" d="M60.59,74.4c-.49-.07-.64-.35-.34-.72s.46,0,.6.22Z"/>
    <path class="cls-73" d="M61.62,70.13c.32-.22.58-.22.69.21l-.44.55C61.56,70.71,61.61,70.42,61.62,70.13Z"/>
    <path class="cls-74" d="M59.57,77.15c-.16.07-.25.45-.43.25s0-.46,0-.7h0c.29-.21.51-.23.5.22A1,1,0,0,0,59.57,77.15Z"/>
    <path class="cls-34" d="M59.6,76.92a.52.52,0,0,0-.5-.22c.11-.45.39-.47.74-.28A.51.51,0,0,1,59.6,76.92Z"/>
    <path class="cls-75" d="M115.33,92.81c.11.46-.36.91-.13,1.43.56-.17.24-.77.63-.93l.12.09c.15.21.15.5.37.67-.28.59-.27,1.3-.77,1.8A.61.61,0,0,1,115,96c-.67-.34-.39-1.14-.78-1.63,0-.47-.1-1,.64-1.06-.57-.38-.45-.8-.05-1.22h.26C115.37,92.24,115.15,92.59,115.33,92.81Z"/>
    <path class="cls-76" d="M112.8,103.64a10.45,10.45,0,0,1,.75-2.73.34.34,0,0,1,.48-.06,12,12,0,0,1-.72,2.56.86.86,0,0,1,0,1h-.23C112.78,104.23,112.82,103.93,112.8,103.64Z"/>
    <path class="cls-28" d="M114.82,92.07a4.23,4.23,0,0,1-.49,2.28c0,.12-.07.26-.19.2-.35-.17-.32-.5-.3-.82,0-.48.44-1,0-1.42a1.62,1.62,0,0,1,.26-.4c.24-.22,0-.81.43-.75S114.73,91.75,114.82,92.07Z"/>
    <path class="cls-77" d="M115.1,97.38c-.16.62-.11,1.33-.73,1.75a.26.26,0,0,1-.35,0,2.64,2.64,0,0,1,0-1.55,1.61,1.61,0,0,1,.84-1.06C115.34,96.74,115.21,97.06,115.1,97.38Z"/>
    <path class="cls-78" d="M112.8,103.64c.3.19.25.5.27.78-.46.51,0,1.28-.51,1.77-.34-.28-.23-.67-.26-1A1.73,1.73,0,0,1,112.8,103.64Z"/>
    <path class="cls-79" d="M114,100.85l-.48.06c-.45-.48,0-.73.27-1a1.33,1.33,0,0,1,.46.23C114.36,100.41,114.16,100.62,114,100.85Z"/>
    <path class="cls-80" d="M115.1,97.38c-.06-.27,0-.6-.27-.78-.25-.36-.09-.58.25-.74h.47Z"/>
    <path class="cls-75" d="M113.82,92.31c.79.27.56.76.27,1.27-.26-.07-.32-.35-.5-.5l0,0Z"/>
    <path class="cls-81" d="M112.3,105.16c.39.27.21.68.26,1a1.64,1.64,0,0,0,0,.23.73.73,0,0,1-.51-.75Z"/>
    <path class="cls-82" d="M115.83,93.31c0-.33.13-.74.53-.62s.22.42,0,.63a.33.33,0,0,1-.49,0Z"/>
    <path class="cls-83" d="M113.3,104.41c0-.34,0-.67,0-1C114.2,103.75,113.56,104.08,113.3,104.41Z"/>
    <path class="cls-84" d="M115.33,92.81c-.3-.18-.25-.47-.25-.75s.25-.25.37-.11C115.71,92.26,115.44,92.53,115.33,92.81Z"/>
    <path class="cls-85" d="M116.34,90.8c.23,0,.6-.09.62.18.05.45-.37.27-.62.31Z"/>
    <path class="cls-86" d="M115.84,93.33h.49c0,.25,0,.5,0,.75C115.81,94,115.83,93.68,115.84,93.33Z"/>
    <path class="cls-87" d="M114.28,100.11c-.31.24-.43.09-.46-.23h0c.25-.19,0-.58.28-.75h.27Z"/>
    <path class="cls-2" d="M113.22,106.06a.85.85,0,0,1-.06-.91C113.4,105.38,113.31,105.64,113.22,106.06Z"/>
    <path class="cls-88" d="M112.83,95.39a.49.49,0,0,0,.21-.08c.32.24.34.62.44,1a1.57,1.57,0,0,1,0,.53c-.12.38-.32.74-.43,1.13s-.2.8-.6,1a.43.43,0,0,1-.33-.08C111.75,97.59,112.54,96.54,112.83,95.39Z"/>
    <path class="cls-89" d="M113.3,96.83l0-.45c.54-.36.68.1.89.43a1.31,1.31,0,0,1,0,.76,6.63,6.63,0,0,1-.56,1.35,3,3,0,0,0-.55,1.34c0,.49-.31.19-.5.11a1.53,1.53,0,0,1-.06-.85c0-.41.28-.74.35-1.14A3.62,3.62,0,0,0,113.3,96.83Z"/>
    <path class="cls-79" d="M113.61,98.92c0-.5-.16-1,.47-1.31.07-.12.15-.13.23,0l-.21,1.53c-.06.26,0,.57-.28.75C113.71,99.57,114,99.18,113.61,98.92Z"/>
    <path class="cls-90" d="M111.79,105.41l-.2,0c-.34-.28,0-.69-.23-1l-.13,0,.33-.72a.28.28,0,0,1,.47,0Z"/>
    <path class="cls-30" d="M112,100.56l-.3,1.33a1.16,1.16,0,0,1-.15-1.54C111.8,100.23,111.89,100.42,112,100.56Z"/>
    <path class="cls-91" d="M112,100.56l-.45-.21.12-.91c.3,0,.44.13.52.39a.45.45,0,0,1-.1.33Z"/>
    <path class="cls-92" d="M112.1,100.16l0-.26c.14-.25-.08-.58.17-.81.48-.14.36.31.51.51l-.2.77Z"/>
    <path class="cls-93" d="M112.32,99.12c0,.28,0,.57-.24.78l-.4-.46c-.1-.38.24-.42.44-.57a.29.29,0,0,1,.16,0c.09,0,.12.1.1.16S112.35,99.12,112.32,99.12Z"/>
    <path class="cls-94" d="M112,103.67l-.47,0c0-.07,0-.17.08-.22.21-.23.19-.89.67-.58S112.06,103.38,112,103.67Z"/>
    <path class="cls-69" d="M58.33,75.9a1.85,1.85,0,0,0,0,.23c-.11.46-.46.93.08,1.35a1.89,1.89,0,0,1-.32,1l-.26.25c-.37-.27-.41.09-.53.29a6.23,6.23,0,0,1-.39.72.43.43,0,0,1-.33.07.83.83,0,0,1-.21-.28,2.51,2.51,0,0,1,.2-1.55c.07-.33.3-.62.26-1a.55.55,0,0,1,.29-.55c.25-.28.34-.72.75-.86a.46.46,0,0,1,.47.13Z"/>
    <path class="cls-95" d="M55.31,85.75A3.39,3.39,0,0,1,54.82,87c-.39-.2-.17-.72-.49-1,.56-.51.42-1.43,1.12-1.86C55.77,84.76,55.33,85.24,55.31,85.75Z"/>
    <path class="cls-96" d="M56.05,81.71h-.49a.66.66,0,0,1-.2-.66c.15-.46.42-.86.57-1.32a.41.41,0,0,1,.63,0h0c.45.57-.12,1.11-.07,1.67A.55.55,0,0,1,56.05,81.71Z"/>
    <path class="cls-97" d="M53.56,85.46a2.16,2.16,0,0,1,.67-1.57c.67.71-.23,1.2-.22,1.79C53.71,85.92,53.67,85.62,53.56,85.46Z"/>
    <path class="cls-20" d="M54.78,87.22a1.48,1.48,0,0,1-.63,1.21l-.36-1.16.49-.77C54.58,86.65,54.51,87.05,54.78,87.22Z"/>
    <path class="cls-98" d="M55.56,81v.74c-.23.07-.28.48-.57.37s-.2-.36-.1-.52c.22-.35,0-.83.39-1.13C55.52,80.53,55.7,80.67,55.56,81Z"/>
    <path class="cls-99" d="M56.79,79.69c.06-.27,0-.58.28-.76s.33-.15.47,0a3,3,0,0,1-.46,1.26C56.63,80.23,56.66,80,56.79,79.69Z"/>
    <path class="cls-100" d="M56.79,79.69c0,.22.05.44.29.55a1.9,1.9,0,0,0-.28,1.21.34.34,0,0,1-.51,0l.27-1.76Z"/>
    <path class="cls-101" d="M55.56,81l-.28-.54c0-.08,0-.15,0-.23a.6.6,0,0,0,.28-.52.34.34,0,0,1,.5,0A1.62,1.62,0,0,1,55.56,81Z"/>
    <path class="cls-102" d="M54.78,87.22c-.62.07-.42-.42-.5-.72l0-.44c.75,0,.37.62.49,1A.36.36,0,0,0,54.78,87.22Z"/>
    <path class="cls-20" d="M53.56,85.46l.45.22c-.14.33-.13.73-.51,1C53.07,86.24,53.6,85.85,53.56,85.46Z"/>
    <path class="cls-103" d="M56.29,81.46h.51c-.14.28-.21.71-.43.8s-.28-.3-.32-.54Z"/>
    <path class="cls-104" d="M57.54,79l-.47,0c.25-.25.1-.82.53-.85s.19.38.22.6Z"/>
    <path class="cls-105" d="M58.08,78.43l.21-1.05,0-.12.09-.07c.37.26.2.65.24,1l-.26.25h-.24Z"/>
    <path class="cls-106" d="M56.05,85.49c.32.18.22.5.27.78s-.15.37-.37.29-.32-.31-.12-.55h0C55.9,85.84,56,85.66,56.05,85.49Z"/>
    <path class="cls-1" d="M91.11,101.64h.24v0c.35.65,1.34.46,1.6,1.3.22-.28.17-.64.42-.82h0c.5.26,1.1,1,1.25-.29l-.07-.1.07-.11c.64.09.62.55.4.93a4.81,4.81,0,0,0-.39,2.45c0,.53.26,1.19-.57,1.43-.08,0-.15.3-.12.44a.6.6,0,0,0,.7.39c1-.55,2-.2,3-.44.11,0,.16-.26.24-.4a1.59,1.59,0,0,0,1-.26c.26,0,.69-.1.66.33a1.12,1.12,0,0,1-.71,1c-2.63,1.12-4.7,1.1-7-1.18-.23-.22-.31-.61-.72-.61l-.27-.79C91.2,103.83,90.78,102.71,91.11,101.64Z"/>
    <path class="cls-107" d="M94.63,101.64a.74.74,0,0,0,0,.21c-.21.1-.4.38-.64.13a.4.4,0,0,1,.1-.63C94.4,101.15,94.51,101.43,94.63,101.64Z"/>
    <path class="cls-108" d="M93.35,101.61c-.19,0-.44.43-.54,0a.55.55,0,0,1,.54-.74Z"/>
    <path class="cls-34" d="M58.33,75.67h-.48c-.3-.18-.26-.48-.28-.77l.74-2,.06.06c.28.26.09.62.19.92s-.8.7,0,1.05c.27.08.33.36.52.51C58.91,75.72,58.61,75.65,58.33,75.67Z"/>
    <path class="cls-109" d="M57.57,74.9c.29.18.26.49.28.77-.22.27-.25.73-.74.73A1.59,1.59,0,0,1,57.57,74.9Z"/>
    <path class="cls-110" d="M56.08,79.73l-.5,0a.88.88,0,0,1,.47-1c.78.17.17.67.24,1Z"/>
    <path class="cls-100" d="M56.29,79.67c-.3-.28.2-.75-.24-1,.09-.26.19-.51.29-.77a.32.32,0,0,1,.46,0,3.5,3.5,0,0,0-.24,1.78Z"/>
    <path class="cls-99" d="M56.8,77.91h-.46a1.15,1.15,0,0,1,.48-1C57.27,77.28,57,77.6,56.8,77.91Z"/>
    <path class="cls-111" d="M117.1,84.24a.46.46,0,0,1-.13-.72c.07-.1.2-.19.29,0,.21.3-.08.52-.16.77Z"/>
    <path class="cls-112" d="M91.11,101.64c-.12,1.08.28,2.2-.23,3.25,0-1.08,0-2.16,0-3.24Z"/>
    <path class="cls-113" d="M114.31,97.6h-.23c0-.27,0-.53,0-.79a10.76,10.76,0,0,0-.54-2.91.42.42,0,0,1,0-.33c0-.17,0-.33.07-.5.34,0,.47.19.5.5s-.26.64.24.77c1,.14.12,1.19.75,1.51-.08.24-.17.49-.25.74C114.82,97,114.48,97.27,114.31,97.6Z"/>
    <path class="cls-114" d="M113.59,93.86c.3.25,0,.81.46.93.7.21.55.6.24,1a1.83,1.83,0,0,0-.25,1c-.24-.14-.33-.52-.71-.44-.38-.28-.22-.71-.29-1.07l0-.47C113.26,94.53,113.24,94.09,113.59,93.86Z"/>
    <path class="cls-75" d="M113.59,93.86a1.36,1.36,0,0,1-.53,1,1.56,1.56,0,0,1,.46-1.26Z"/>
    <path class="cls-115" d="M111.36,104.45c.31.28.15.67.23,1C111,105.23,111.36,104.8,111.36,104.45Z"/>
    <path class="cls-116" d="M84.06,84.49c.22-.09.48-.26.48.2-.42,1.26-.26,2.67-1,3.86a.4.4,0,0,1-.34-.33A9.57,9.57,0,0,1,84.06,84.49Z"/>
    <path class="cls-117" d="M83.22,88.22l.34.33A7.7,7.7,0,0,1,82.79,91c-.25-.27,0-.64-.2-.93l0-.31c-.23-.56.18-1,.27-1.51v0Z"/>
    <path class="cls-5" d="M78,94.84c-.42.64-1.11.67-1.77.75A3.34,3.34,0,0,1,78,94.84Z"/>
    <path class="cls-118" d="M82.59,90.1c.33.26.14.62.2.93l-.05.25c-.08.09-.15.23-.25.25-.3.08-.16-.16-.14-.26C82.41,90.88,82.51,90.49,82.59,90.1Z"/>
    <path class="cls-15" d="M93.38,102.14c0,.29,0,.59,0,.88s0,.55-.34.58-.29-.28-.3-.52c-.07-.84-1.4-.48-1.38-1.42A4.45,4.45,0,0,0,93.38,102.14Z"/>
    <path class="cls-119" d="M91.39,101.35c0-.14,0-.28,0-.42.22,0,.43-.27.64-.07a.45.45,0,0,1,0,.44C91.91,101.72,91.63,101.31,91.39,101.35Z"/>
    <path class="cls-43" d="M82.81,88.28l-.27,1.51-.23,0A2,2,0,0,1,82.81,88.28Z"/>
    <path class="cls-4" d="M46.24,119.38c-.08.32.11.74-.29.78s-.46-.37-.48-.7,0-.78.41-.79S46.1,119.18,46.24,119.38Z"/>
    <path class="cls-14" d="M55.83,86c.07.26.07.65.49.26a1,1,0,0,0,.22-.08c.05.39,0,.74-.42.9a.46.46,0,0,1-.53-.18C55.27,86.51,55.51,86.24,55.83,86Z"/>
    <path class="cls-120" d="M55.28,89.27h-.47c0-.43,0-1,.55-.85C55.77,88.52,55.39,89,55.28,89.27Z"/>
    <path class="cls-121" d="M54.3,91.56l.28.28c-.08.29,0,.66-.45.81A1.3,1.3,0,0,1,54.3,91.56Z"/>
    <path class="cls-5" d="M54.11,97.39l-.06.46-.52.76C53.56,98.12,53.41,97.56,54.11,97.39Z"/>
    <path class="cls-122" d="M59.08,75.41c-.37,0-.49-.19-.52-.51.15-.19.31-.53.55-.37S59,75.1,59.08,75.41Z"/>
    <path class="cls-123" d="M58.56,73.85c-.37-.24-.22-.59-.19-.92.34,0,.43.18.44.46S58.65,73.7,58.56,73.85Z"/>
    <path class="cls-124" d="M59.67,73.23c-.09-.32-.11-.53.06-.69s.19,0,.21,0C60.08,72.83,59.92,73,59.67,73.23Z"/>
    <path class="cls-125" d="M136.5,104.14l-.72.24c.23-.33.14-.82.6-1.14C136.61,103.53,136.51,103.85,136.5,104.14Z"/>
    <path class="cls-126" d="M58.34,77.19c0,.06,0,.13-.05.19-.91-.44-.38-.84,0-1.25C58.8,76.47,58.25,76.84,58.34,77.19Z"/>
    <path class="cls-127" d="M113.3,96.83c.5.6,0,1-.22,1.55-.22-.1-.14-.34-.25-.5A1.26,1.26,0,0,1,113.3,96.83Z"/>
    <path class="cls-128" d="M112.83,97.88c.09.17.17.33.25.5-.11.4-.21.81-.32,1.22l-.44-.48a2,2,0,0,0,0-.26C112.73,98.68,112.49,98.12,112.83,97.88Z"/>
  </g>
</svg>
